<svg xmlns="http://www.w3.org/2000/svg" width="1024" height="1024" fill="none"><defs><filter id="shadow" width="140%" height="140%" x="-20%" y="-20%"><feDropShadow dx="0" dy="18" flood-color="#000" flood-opacity=".35" stdDeviation="14"/></filter><style>.stroke,.stroke-accent{stroke:#e2e8f0;stroke-width:36;stroke-linecap:round;stroke-linejoin:round}.stroke-accent{stroke:#34d399}</style></defs><rect width="832" height="832" x="96" y="96" rx="196" style="filter:url(#shadow);fill:#0f172a"/><rect width="504" height="560" x="260" y="232" class="stroke" rx="64"/><path d="M330 356h364M330 468h314M330 580h364M330 692h282" class="stroke"/><rect width="86" height="124" x="780" y="296" class="stroke" rx="18" ry="18"/><path d="M800 340h46" class="stroke"/><rect width="86" height="124" x="780" y="468" class="stroke" rx="18" ry="18"/><path d="M800 512h46" class="stroke"/><rect width="86" height="124" x="780" y="640" class="stroke" rx="18" ry="18"/><path d="M800 684h46" class="stroke"/><path d="M740 524c84 0 84 112 0 112M740 636v84M740 720l44-44M740 720l-44-44" class="stroke-accent"/><circle cx="330" cy="300" r="20" style="fill:#34d399"/></svg>